# xmcd
#
# Track frame offsets:
#	150
#	17046
#	33371
#	49967
#	72528
#	86967
#	95804
#	112713
#	128415
#	146115
#	164020
#	187961
#	203660
#	221255
#	243503
#
# Disc length: 3566 seconds
#
# Revision: 0
# Processed by: cddbd v1.5.1PL0 Copyright (c) Steve Scherf et al.
# Submitted via: dBpowerAMP V4.0
#
DISCID=d70dec0f
DTITLE=Stained Grass Window - Mostly Gospel Album
DYEAR=2000
DGENRE=Bluegrass
TTITLE0=Have Mercy on My Soul
TTITLE1=Last Train to Glory
TTITLE2=Rainbow Bridge
TTITLE3=Tenderly Calling Me Home
TTITLE4=She's a Lover Not a Saint
TTITLE5=Where the Soul of Man Never Dies
TTITLE6=Blue Train
TTITLE7=What a Friend We Have in Jesus
TTITLE8=First Step to Heaven
TTITLE9=Old Joe's Bar and Grill
TTITLE10=Three Rusty Nails
TTITLE11=Turkey Knob
TTITLE12=Tequilla Sunrise
TTITLE13=Workin' on a Building
TTITLE14=House of the Risin' Sun
EXTD=
EXTT0=
EXTT1=
EXTT2=
EXTT3=
EXTT4=
EXTT5=
EXTT6=
EXTT7=
EXTT8=
EXTT9=
EXTT10=
EXTT11=
EXTT12=
EXTT13=
EXTT14=
PLAYORDER=
